<?xml version="1.0" standalone="no"?>
<!DOCTYPE svg PUBLIC "-//W3C//DTD SVG 20010904//EN"
 "http://www.w3.org/TR/2001/REC-SVG-20010904/DTD/svg10.dtd">
<svg version="1.0" xmlns="http://www.w3.org/2000/svg"
 width="945.000000pt" height="1069.000000pt" viewBox="0 0 945.000000 1069.000000"
 preserveAspectRatio="xMidYMid meet">

<g transform="translate(0.000000,1069.000000) scale(0.100000,-0.100000)"
fill="#000000" stroke="none">
<path d="M670 9885 c0 -52 4 -95 9 -95 6 0 11 15 13 33 3 29 6 32 43 37 55 8
65 16 65 55 0 43 -29 65 -87 65 l-43 0 0 -95z m91 65 c41 -23 13 -74 -38 -68
-20 2 -29 9 -31 26 -7 49 22 66 69 42z"/>
<path d="M1117 9973 c-4 -3 -7 -14 -7 -24 0 -10 -7 -22 -16 -27 -15 -8 -15
-10 0 -15 12 -5 16 -20 16 -62 0 -42 3 -55 15 -55 12 0 15 13 15 60 0 50 3 60
18 61 13 0 12 2 -5 9 -28 12 -30 30 -3 37 11 3 20 9 20 14 0 10 -43 12 -53 2z"/>
<path d="M1200 9965 c0 -8 7 -15 15 -15 8 0 15 7 15 15 0 8 -7 15 -15 15 -8 0
-15 -7 -15 -15z"/>
<path d="M1294 9943 c-3 -13 -11 -23 -16 -23 -7 0 -7 -5 0 -13 6 -7 12 -35 14
-62 3 -46 5 -50 31 -53 15 -2 27 1 27 7 0 6 -7 11 -15 11 -10 0 -15 10 -15 29
0 16 -3 36 -6 45 -4 11 2 19 17 25 18 7 20 10 6 10 -10 1 -22 11 -27 24 l-9
22 -7 -22z"/>
<path d="M882 9914 c-12 -8 -22 -10 -22 -5 0 6 -4 11 -10 11 -6 0 -10 -28 -10
-65 0 -75 17 -89 22 -17 2 38 7 49 26 57 12 5 22 15 22 22 0 16 -1 16 -28 -3z"/>
<path d="M969 9916 c-56 -28 -42 -118 20 -124 43 -4 71 21 71 63 0 55 -44 85
-91 61z m49 -18 c18 -18 15 -77 -4 -85 -41 -15 -71 49 -39 81 20 19 27 20 43
4z"/>
<path d="M1200 9855 c0 -51 3 -65 15 -65 12 0 15 14 15 65 0 51 -3 65 -15 65
-12 0 -15 -14 -15 -65z"/>
<path d="M4490 8992 c-56 -5 -158 -40 -219 -74 -144 -81 -299 -225 -357 -331
-32 -59 -36 -142 -9 -183 12 -18 13 -29 5 -43 -15 -28 -12 -67 5 -81 8 -7 15
-22 15 -34 0 -12 17 -45 38 -74 31 -43 41 -51 62 -47 28 5 51 -9 68 -42 17
-32 15 -36 -10 -19 -53 38 -98 -4 -98 -92 0 -33 7 -46 42 -82 57 -57 92 -73
144 -67 30 3 47 0 59 -12 16 -15 16 -14 1 16 -20 40 -31 47 -46 28 -18 -21
-67 -19 -106 6 -29 17 -33 25 -28 47 10 42 24 62 47 71 26 10 47 -3 47 -30 0
-21 28 -52 40 -44 5 3 4 20 -1 38 -28 98 5 261 65 320 49 49 240 165 308 188
94 31 210 42 324 29 54 -6 108 -17 120 -25 28 -18 34 -67 34 -259 l0 -151 61
109 62 109 -13 69 c-6 37 -22 88 -34 112 l-22 43 23 49 c39 83 30 126 -42 203
-57 61 -174 143 -258 181 -108 49 -246 79 -327 72z"/>
<path d="M4365 8319 c-71 -38 -102 -78 -50 -65 23 6 25 4 19 -19 -7 -28 4 -32
39 -13 22 11 97 29 97 22 0 -2 -22 -15 -49 -29 -53 -26 -88 -64 -70 -75 5 -4
25 8 44 27 42 42 55 42 48 -1 -4 -26 0 -39 16 -55 47 -47 122 -8 106 56 -5 21
-4 25 5 17 14 -14 17 -51 5 -77 -5 -13 -4 -16 9 -11 8 3 20 21 25 38 4 18 20
44 35 59 19 19 26 36 26 66 0 60 -25 72 -158 77 -95 4 -111 2 -147 -17z m175
-133 c0 -8 -4 -17 -8 -20 -13 -8 -35 11 -28 23 10 16 36 14 36 -3z"/>
<path d="M4801 8301 c-44 -28 45 -60 127 -46 28 4 49 2 71 -10 38 -19 40 -7 5
34 -25 30 -28 31 -107 31 -45 0 -88 -4 -96 -9z"/>
<path d="M4861 8195 c-23 -11 -31 -20 -27 -31 3 -9 6 -24 6 -35 0 -25 34 -59
59 -59 32 0 53 29 49 67 -5 42 4 42 25 1 l16 -33 0 32 c1 23 -6 37 -25 52 -31
24 -56 26 -103 6z m61 -40 c0 -5 -5 -11 -11 -13 -6 -2 -11 4 -11 13 0 9 5 15
11 13 6 -2 11 -8 11 -13z"/>
<path d="M4683 7932 c-31 -9 -65 -40 -58 -52 3 -6 19 -10 36 -10 16 0 38 -5
49 -12 15 -10 22 -9 38 5 10 9 28 17 40 17 29 0 28 18 -2 30 -13 5 -27 14 -31
19 -7 12 -37 13 -72 3z"/>
<path d="M1290 7750 c0 -113 1 -120 20 -120 14 0 20 7 20 24 0 13 7 30 16 37
15 12 18 11 28 -5 23 -39 43 -59 54 -55 8 3 3 19 -16 49 l-29 45 25 33 c36 47
3 43 -43 -5 l-34 -38 -1 78 c0 70 -2 77 -20 77 -19 0 -20 -7 -20 -120z"/>
<path d="M695 7843 c-37 -36 -47 -121 -20 -172 16 -32 33 -41 79 -41 49 0 76
24 76 68 0 47 -9 60 -47 71 -22 6 -39 5 -57 -4 -25 -13 -26 -13 -26 14 0 28
26 61 49 61 7 0 26 -8 42 -17 35 -21 49 -11 24 17 -23 26 -96 28 -120 3z m89
-109 c9 -8 16 -23 16 -31 0 -21 -29 -53 -48 -53 -22 0 -52 30 -52 51 0 23 26
49 50 49 10 0 26 -7 34 -16z"/>
<path d="M890 7840 c-11 -11 -20 -27 -20 -35 0 -22 27 -19 40 4 13 26 44 35
70 21 36 -19 21 -51 -42 -93 -52 -34 -58 -42 -58 -73 l0 -34 80 0 c64 0 80 3
80 15 0 12 -14 15 -65 15 -63 0 -65 1 -55 20 6 11 28 29 50 40 99 50 89 140
-15 140 -32 0 -51 -6 -65 -20z"/>
<path d="M1125 7787 c-30 -41 -55 -79 -55 -85 0 -6 24 -12 58 -14 54 -3 57 -4
60 -30 4 -36 32 -38 32 -2 0 17 6 28 20 31 11 3 20 9 20 14 0 5 -9 9 -20 9
-18 0 -20 7 -20 75 0 68 -2 75 -20 75 -13 0 -39 -26 -75 -73z m63 -24 c-3 -48
-3 -48 -40 -51 -21 -2 -38 0 -38 3 0 12 63 95 72 95 5 0 8 -21 6 -47z"/>
<path d="M4315 7820 c-41 -16 -50 -37 -32 -74 8 -19 29 -49 45 -67 30 -35 69
-113 92 -184 50 -156 68 -185 114 -185 46 0 74 24 102 88 29 65 91 134 149
165 l40 21 -30 6 c-16 3 -50 17 -75 32 -25 14 -71 31 -102 38 -44 8 -63 19
-83 42 -52 62 -22 77 158 81 104 2 114 4 90 15 -17 7 -62 11 -118 10 -49 -2
-95 1 -102 5 -6 4 -32 2 -57 -5 -39 -10 -50 -10 -81 5 -38 18 -77 21 -110 7z"/>
<path d="M4622 7753 c5 -29 50 -45 89 -31 70 24 50 45 -44 47 -41 1 -48 -2
-45 -16z"/>
<path d="M7095 7555 c-20 -19 -25 -34 -25 -73 0 -63 25 -92 80 -92 57 0 80 26
80 90 0 62 -31 100 -80 100 -19 0 -40 -9 -55 -25z m89 -11 c19 -19 22 -104 4
-122 -7 -7 -24 -12 -38 -12 -37 0 -50 18 -50 69 0 69 45 104 84 65z"/>
<path d="M7470 7545 c0 -38 -2 -40 -31 -24 -33 17 -69 -13 -69 -57 0 -51 15
-74 50 -74 16 0 32 5 36 11 4 7 -2 9 -17 7 -18 -2 -27 4 -37 25 -12 24 -11 31
2 53 19 28 29 30 51 7 11 -11 15 -27 12 -47 -5 -35 0 -56 14 -56 5 0 9 43 9
95 0 57 -4 95 -10 95 -5 0 -10 -16 -10 -35z"/>
<path d="M7323 7523 c-20 -7 -15 -23 7 -23 11 0 20 4 20 9 0 13 -12 19 -27 14z"/>
<path d="M7555 7506 c-29 -29 -32 -62 -9 -94 18 -26 75 -30 94 -7 19 22 5 30
-21 11 -25 -17 -59 -6 -59 19 0 11 12 15 45 15 41 0 45 2 45 24 0 26 -13 40
-47 50 -17 5 -29 1 -48 -18z m63 -8 c20 -20 14 -28 -23 -28 -19 0 -35 4 -35 8
0 12 22 32 35 32 6 0 16 -5 23 -12z"/>
<path d="M7748 7523 c-24 -6 -23 -23 2 -23 11 0 20 7 20 15 0 8 -1 14 -2 14
-2 -1 -11 -3 -20 -6z"/>
<path d="M7270 7455 c0 -49 3 -65 14 -65 10 0 15 16 18 55 4 65 1 75 -18 75
-11 0 -14 -16 -14 -65z"/>
<path d="M7690 7455 c0 -49 3 -65 14 -65 10 0 15 16 18 55 4 65 1 75 -18 75
-11 0 -14 -16 -14 -65z"/>
<path d="M4325 7294 c-17 -8 -43 -26 -60 -38 -17 -13 -67 -42 -111 -64 -118
-60 -318 -176 -391 -228 -154 -110 -260 -304 -318 -584 -15 -70 -20 -116 -14
-118 5 -2 15 -9 22 -16 6 -7 32 -23 55 -36 86 -48 112 -136 72 -243 -56 -151
-63 -237 -25 -309 21 -39 25 -61 25 -131 0 -99 -35 -427 -65 -617 -9 -57 93
308 109 390 8 41 18 111 21 155 10 119 19 152 89 318 35 84 77 191 92 239 23
72 31 87 47 85 23 -2 38 35 62 151 9 43 20 81 25 86 35 36 44 -207 26 -759 -5
-179 -5 -326 3 -437 8 -138 8 -181 -4 -250 -8 -46 -15 -106 -15 -133 0 -28 -6
-75 -14 -105 -15 -57 -9 -165 13 -239 14 -46 26 -305 17 -364 -4 -27 -16 -55
-28 -66 -20 -19 -20 -20 -3 -148 10 -70 23 -137 30 -148 7 -11 16 -45 20 -75
15 -120 47 -255 65 -275 38 -41 44 -74 45 -275 1 -187 2 -200 32 -310 18 -63
37 -164 43 -225 11 -117 17 -370 10 -470 -3 -49 3 -79 30 -160 l34 -100 1
-221 0 -221 30 -37 c57 -72 63 -88 80 -205 9 -64 18 -128 20 -143 2 -15 -2
-31 -10 -38 -8 -6 -16 -42 -20 -84 -6 -62 -4 -79 13 -113 11 -21 28 -46 37
-53 16 -13 17 -8 12 75 -3 50 -8 102 -12 117 l-7 28 51 -21 c48 -20 52 -21 91
-5 22 9 55 16 73 16 18 0 42 7 54 15 20 14 21 25 24 176 l4 161 39 34 c34 30
42 46 81 175 40 129 47 146 88 188 62 64 76 96 87 203 18 171 30 216 99 357
31 65 41 97 41 136 0 55 5 74 109 410 80 259 86 309 55 487 -20 114 -16 219 9
246 14 16 20 51 28 178 6 88 15 164 20 170 5 6 12 67 16 136 l6 124 -26 17
c-40 26 -50 98 -51 372 -1 174 -5 246 -14 263 -7 12 -22 63 -33 113 -11 50
-30 117 -43 148 -24 59 -38 193 -52 513 l-7 146 24 4 c46 6 235 -11 414 -37
236 -35 311 -32 390 16 l57 34 -79 6 c-43 4 -127 12 -188 17 -60 6 -219 12
-351 14 l-242 3 -5 42 c-2 22 -14 55 -26 72 -17 23 -19 31 -8 31 11 0 16 22
20 88 4 48 16 123 27 167 22 88 73 205 89 205 5 0 31 -26 57 -57 85 -102 117
-133 140 -133 16 0 37 -19 70 -62 26 -35 51 -67 55 -72 8 -10 76 11 85 26 4 7
2 8 -4 4 -7 -4 -12 -1 -12 9 0 9 -4 13 -10 10 -5 -3 -10 -1 -10 4 0 6 -5 11
-10 11 -13 0 -52 43 -81 88 -33 52 -29 88 20 159 51 75 89 109 139 123 70 19
98 13 131 -27 l30 -36 6 26 c5 18 1 37 -13 59 -11 18 -34 60 -51 93 -43 80
-49 90 -101 160 -57 77 -221 247 -280 290 -67 49 -198 115 -355 179 -77 32
-158 68 -180 82 -109 65 -148 71 -82 10 48 -44 48 -71 -2 -127 -96 -109 -282
-142 -433 -77 -27 11 -60 34 -74 51 -37 43 -30 105 17 153 38 39 36 50 -6 28z
m286 -1117 c33 -61 78 -107 159 -165 152 -108 220 -164 220 -179 0 -33 -46
-148 -70 -173 -34 -36 -102 -45 -225 -29 -116 14 -144 15 -177 6 -22 -6 -28
-4 -28 8 0 17 3 18 68 35 93 24 28 54 -87 41 -51 -6 -64 -5 -69 7 -10 28 13
47 52 44 26 -3 36 0 36 11 0 14 -40 27 -86 27 -19 0 -24 5 -24 24 0 32 22 48
62 46 64 -4 72 -2 58 15 -7 8 -28 15 -46 15 -27 0 -34 4 -34 19 0 43 27 54
122 49 73 -3 88 -2 83 10 -3 8 -8 26 -11 40 -9 36 -35 66 -45 51 -11 -19 -39
45 -39 90 0 28 5 43 18 50 26 15 34 9 63 -42z m469 -286 c0 -17 -20 -23 -52
-16 -22 5 -27 9 -17 16 19 12 69 11 69 0z m-375 -1798 c-4 -123 -3 -234 4
-293 5 -52 15 -156 21 -230 6 -74 20 -205 31 -290 24 -175 22 -352 -5 -475
-19 -85 -95 -355 -106 -374 -8 -15 -20 790 -18 1199 1 182 -3 273 -16 354 -18
125 -21 219 -6 247 10 17 73 58 93 59 5 0 6 -89 2 -197z"/>
<path d="M4518 5803 c7 -3 16 -2 19 1 4 3 -2 6 -13 5 -11 0 -14 -3 -6 -6z"/>
<path d="M8750 6640 c-7 -12 -9 -155 -8 -421 3 -370 4 -403 21 -413 12 -8 22
-8 35 0 16 10 17 43 20 419 1 293 -1 412 -9 421 -17 20 -47 17 -59 -6z"/>
<path d="M7060 6521 c-6 -13 -10 -142 -10 -351 0 -209 4 -338 10 -351 12 -21
40 -25 58 -7 9 9 12 102 12 358 0 256 -3 349 -12 358 -18 18 -46 14 -58 -7z"/>
<path d="M8191 6526 c-8 -9 -11 -113 -9 -361 3 -307 5 -349 19 -358 9 -6 24
-7 33 -4 14 6 16 42 16 366 0 318 -2 360 -16 365 -23 9 -30 8 -43 -8z"/>
<path d="M7346 6314 c-14 -13 -16 -50 -16 -249 0 -199 2 -236 16 -249 8 -9 21
-16 28 -16 33 0 36 23 36 265 0 242 -3 265 -36 265 -7 0 -20 -7 -28 -16z"/>
<path d="M8471 6316 c-8 -9 -11 -86 -9 -256 3 -219 5 -244 21 -254 12 -8 22
-8 35 0 15 10 17 35 20 254 2 250 0 270 -38 270 -10 0 -23 -6 -29 -14z"/>
<path d="M7917 6198 c-15 -8 -17 -31 -17 -191 0 -129 4 -187 12 -195 18 -18
46 -14 58 7 13 25 13 336 0 360 -12 24 -32 31 -53 19z"/>
<path d="M7627 6004 c-4 -4 -7 -49 -7 -100 0 -98 8 -112 52 -98 17 5 18 15 16
102 -3 96 -3 97 -28 100 -14 2 -29 0 -33 -4z"/>
<path d="M7116 5435 c-3 -8 -15 -15 -26 -15 -11 0 -20 -4 -20 -10 0 -5 9 -10
20 -10 19 0 20 -7 20 -96 0 -86 2 -95 18 -92 15 3 17 18 20 121 2 96 0 117
-12 117 -7 0 -16 -7 -20 -15z"/>
<path d="M7245 5438 c-23 -13 -35 -28 -35 -45 0 -20 24 -15 38 8 10 15 21 19
45 17 28 -3 32 -7 32 -33 0 -23 -8 -34 -35 -51 -60 -38 -80 -61 -80 -94 l0
-30 80 0 c64 0 80 3 80 15 0 12 -13 15 -60 15 -70 0 -81 19 -29 48 61 33 89
62 89 93 0 57 -70 89 -125 57z"/>
<path d="M7463 5375 c-69 -95 -69 -105 2 -105 54 0 55 0 55 -30 0 -20 5 -30
15 -30 10 0 15 10 15 30 0 23 4 30 20 30 11 0 20 7 20 15 0 8 -9 15 -20 15
-18 0 -20 7 -20 75 0 99 -17 99 -87 0z m57 -25 l0 -50 -40 0 -40 0 37 50 c20
28 39 50 40 50 2 0 3 -22 3 -50z"/>
<path d="M7630 5330 c0 -100 3 -120 15 -120 9 0 15 9 15 23 0 13 9 32 19 41
19 17 20 16 43 -23 14 -25 30 -41 42 -41 20 0 22 -6 -29 73 -17 27 -17 28 9
62 24 31 25 35 9 35 -10 0 -31 -16 -46 -35 -15 -19 -32 -35 -37 -35 -6 0 -10
32 -10 70 0 56 -3 70 -15 70 -12 0 -15 -20 -15 -120z"/>
<path d="M3466 4312 c-4 -11 1 -36 10 -58 12 -27 14 -54 10 -91 -7 -58 4 -97
30 -107 25 -10 28 -1 13 36 -8 19 -12 63 -11 108 2 79 -11 130 -34 130 -7 0
-15 -8 -18 -18z"/>
<path d="M3206 4169 c-2 -8 -7 -54 -9 -104 -4 -73 -1 -99 15 -145 24 -64 34
-79 64 -90 12 -5 25 -21 29 -37 12 -49 58 -60 77 -18 9 21 6 35 -18 87 -25 55
-29 75 -28 153 0 50 3 100 8 112 11 30 -22 48 -58 32 l-25 -12 20 -26 c13 -18
21 -51 26 -105 6 -77 6 -78 -15 -67 -17 9 -23 8 -31 -6 -6 -10 -11 -13 -11 -8
-1 6 -5 58 -9 118 -7 99 -23 153 -35 116z"/>
<path d="M3373 3963 c3 -21 8 -47 10 -58 2 -11 8 -38 12 -60 7 -43 18 -55 52
-55 27 0 36 14 25 37 -10 21 -32 69 -57 131 -23 55 -50 58 -42 5z"/>
<path d="M4759 790 c-20 -16 -21 -19 -7 -20 10 0 25 -14 34 -32 15 -30 15 -32
-2 -45 -16 -12 -21 -10 -41 14 -13 16 -21 36 -19 46 3 12 -4 21 -21 28 -14 5
-28 8 -30 6 -7 -8 -16 -166 -9 -182 5 -13 14 -9 55 25 l48 41 37 -22 c35 -21
36 -21 36 -1 0 11 -7 23 -16 26 -9 4 -14 9 -11 12 8 9 48 -16 42 -26 -3 -5 -1
-12 5 -15 6 -4 8 -15 5 -25 -3 -11 4 -38 17 -62 22 -41 23 -42 26 -16 5 40
-15 103 -43 136 -14 17 -25 34 -25 38 0 14 -44 94 -51 94 -4 0 -17 -9 -30 -20z"/>
<path d="M4850 498 c-30 -4 -80 -21 -110 -36 l-55 -28 -5 -74 c-5 -68 -7 -76
-30 -86 -65 -30 -67 -29 -80 31 -16 76 -50 114 -110 122 -25 3 -49 9 -55 13
-5 4 -24 11 -41 14 -33 7 -42 2 -145 -85 -30 -26 -66 -50 -80 -54 -14 -3 -45
-24 -68 -45 -34 -31 -42 -45 -38 -62 3 -13 9 -51 13 -86 9 -81 23 -92 124 -92
94 0 161 12 315 56 215 62 199 54 206 97 3 20 8 40 11 43 3 3 27 -9 53 -27 51
-35 119 -48 153 -30 29 15 68 91 77 147 4 27 11 56 16 65 9 17 -15 104 -31
114 -16 10 -65 11 -120 3z m83 -50 c9 -23 15 -43 14 -45 -2 -1 -24 -6 -50 -9
l-46 -7 9 32 c5 19 5 29 -1 26 -10 -7 -13 28 -2 38 3 4 18 7 33 7 22 0 30 -7
43 -42z m-442 -89 c9 -17 7 -25 -12 -45 -28 -30 -35 -30 -56 2 -16 25 -16 27
8 45 31 24 46 24 60 -2z m467 -15 c7 -47 -58 -75 -122 -53 -67 24 -56 40 44
68 51 14 75 9 78 -15z m-669 5 c39 8 45 7 84 -23 40 -30 87 -89 87 -108 0 -4
-12 -14 -26 -20 -23 -11 -28 -10 -40 7 -38 54 -80 86 -133 102 -70 21 -70 22
-47 39 13 9 22 10 26 4 5 -7 20 -8 49 -1z m-156 -96 c7 -6 -21 -32 -35 -33 -5
0 -8 9 -8 20 0 19 28 28 43 13z m87 -69 c64 -26 49 -36 -44 -33 -89 4 -102 9
-93 34 8 20 84 20 137 -1z"/>
</g>
</svg>
